<?xml version="1.0" standalone="no"?>
<!DOCTYPE svg PUBLIC "-//W3C//DTD SVG 20010904//EN"
 "http://www.w3.org/TR/2001/REC-SVG-20010904/DTD/svg10.dtd">
<svg version="1.0" xmlns="http://www.w3.org/2000/svg"
 width="300.000000pt" height="300.000000pt" viewBox="0 0 300.000000 300.000000"
 preserveAspectRatio="xMidYMid meet">
<metadata>
Created by potrace 1.11, written by Peter Selinger 2001-2013
</metadata>
<g transform="translate(0.000000,300.000000) scale(0.100000,-0.100000)"
fill="#000000" stroke="none">
<path d="M1092 1842 c-145 -52 -223 -193 -209 -380 8 -109 32 -166 97 -233 74
-74 134 -94 269 -87 73 4 110 11 156 31 l60 25 3 56 c2 43 0 56 -11 56 -8 0
-20 -6 -26 -14 -6 -7 -39 -26 -72 -41 -121 -54 -256 -30 -318 56 -39 53 -52
103 -52 189 0 103 23 172 73 216 86 79 243 76 357 -6 46 -32 52 -27 49 37 l-3
58 -60 24 c-83 34 -236 40 -313 13z"/>
<path d="M1697 1845 c-139 -53 -189 -200 -102 -303 35 -41 80 -60 208 -87 132
-27 161 -39 176 -72 63 -139 -153 -208 -349 -110 -36 17 -68 34 -72 35 -5 2
-8 -23 -8 -56 l0 -61 58 -22 c68 -26 243 -38 307 -20 110 29 176 107 176 206
0 118 -57 162 -261 200 -137 25 -170 46 -170 112 0 67 59 105 164 105 73 -1
135 -17 194 -52 18 -11 38 -20 43 -20 6 0 9 24 7 58 l-3 57 -55 19 c-73 26
-258 32 -313 11z"/>
</g>
</svg>
